<?xml version="1.0" standalone="no"?>
<!DOCTYPE svg PUBLIC "-//W3C//DTD SVG 20010904//EN"
 "http://www.w3.org/TR/2001/REC-SVG-20010904/DTD/svg10.dtd">
<svg version="1.0" xmlns="http://www.w3.org/2000/svg"
 width="1000.000000pt" height="1000.000000pt" viewBox="0 0 1000.000000 1000.000000"
 preserveAspectRatio="xMidYMid meet">
<metadata>
Created by potrace 1.11, written by Peter Selinger 2001-2013
</metadata>
<g transform="translate(0.000000,1000.000000) scale(0.100000,-0.100000)"
fill="#000000" stroke="none">
<path d="M4680 8990 c-87 -8 -184 -19 -220 -25 -27 -4 -85 -13 -140 -21 -137
-21 -392 -84 -565 -140 -365 -119 -760 -319 -1071 -542 -129 -92 -176 -128
-203 -152 -9 -8 -48 -41 -86 -73 -39 -32 -132 -120 -209 -195 -463 -456 -805
-1015 -1000 -1632 -40 -127 -94 -336 -110 -425 -3 -16 -8 -40 -10 -52 -3 -11
-8 -43 -12 -70 -5 -26 -9 -50 -9 -53 -1 -3 -5 -32 -9 -65 -4 -33 -9 -70 -11
-83 -27 -173 -27 -758 0 -923 2 -13 6 -46 10 -74 65 -536 273 -1109 576 -1593
237 -378 561 -739 902 -1007 l76 -60 -567 -5 c-637 -6 -613 -4 -777 -84 -141
-70 -250 -170 -337 -311 -25 -42 -66 -133 -75 -169 -15 -60 -32 -165 -33 -199
l0 -38 2268 4 c1247 2 2278 6 2292 9 14 3 55 9 92 12 37 4 77 9 90 11 13 2 41
6 63 9 38 6 54 9 120 21 17 4 46 9 65 11 75 12 382 95 508 138 146 51 458 181
483 203 8 7 20 13 25 13 15 0 264 143 378 217 302 196 624 478 853 748 24 28
49 57 57 65 56 62 236 316 323 456 92 148 228 420 293 584 23 58 45 114 50
125 56 129 172 582 194 760 4 28 9 64 11 80 36 220 42 825 11 991 -2 10 -7 44
-10 75 -4 31 -9 67 -12 80 -2 13 -7 42 -10 64 -2 22 -14 85 -25 140 -187 906
-703 1742 -1431 2319 l-78 61 78 2 c42 2 298 4 567 6 543 3 536 3 684 73 262
123 434 369 458 652 l6 72 -2224 -1 c-1223 -1 -2258 -5 -2299 -9z m1075 -1780
c104 -60 248 -149 321 -200 28 -19 80 -55 115 -79 57 -39 145 -107 159 -121 3
-3 25 -21 50 -40 74 -58 129 -109 255 -235 308 -307 509 -616 621 -955 29 -87
64 -222 70 -265 2 -16 6 -46 9 -65 17 -114 18 -108 -21 -178 -164 -295 -393
-633 -613 -902 -47 -58 -88 -107 -91 -110 -3 -3 -34 -39 -70 -80 -214 -247
-554 -570 -804 -765 -21 -16 -44 -35 -50 -40 -6 -6 -65 -50 -131 -99 -233
-173 -527 -357 -781 -492 l-101 -53 -49 24 c-420 205 -612 318 -889 521 -165
121 -286 224 -426 363 -422 423 -651 859 -714 1359 -6 46 -6 46 80 197 48 85
155 255 229 363 39 57 78 114 86 125 243 356 658 812 1018 1118 59 51 121 103
137 118 44 38 348 266 413 309 31 20 66 44 78 52 90 61 349 218 444 270 63 34
120 65 125 70 6 4 23 12 40 17 26 9 49 0 215 -83 102 -51 226 -116 275 -144z"/>
</g>
</svg>
