<svg xmlns="http://www.w3.org/2000/svg" viewBox="0 0 1000 1000"><defs><style>.cls-1{fill:#10054c;}.cls-2{fill:#0d6872;}</style></defs><title>Asset 41000</title><g id="Layer_2" data-name="Layer 2"><g id="moon_2.0" data-name="moon 2.0"><path class="cls-1" d="M1000,500c0,276.14-223.74,500-499.72,500a502.21,502.21,0,0,1-104.51-10.95s0,0,0,0C462.9,694.81,695,463.43,989.47,397.43A501.19,501.19,0,0,1,1000,500Z"/><path class="cls-1" d="M747.33,65.3C392,108.57,109.86,389.08,63.88,743.76A497.91,497.91,0,0,1,.57,500C.57,223.86,224.31,0,500.28,0A496.93,496.93,0,0,1,747.33,65.3Z"/><path class="cls-2" d="M500.61,249.11c0,137.59-112.07,249.11-250.32,249.11a249.88,249.88,0,0,1-101-21.14c-.62-.24-1.22-.51-1.81-.78-2.54-1.14-5.08-2.35-7.59-3.59A250.72,250.72,0,0,1,22.8,353.19c-.22-.43-.41-.89-.62-1.35v0A247.46,247.46,0,0,1,0,249.11C0,111.54,112.07,0,250.29,0A250.87,250.87,0,0,1,352.91,21.81l.54.24A250.69,250.69,0,0,1,474.7,138.7c1.24,2.46,2.46,4.95,3.59,7.46.41.86.78,1.76,1.16,2.65A247.1,247.1,0,0,1,500.61,249.11Z"/></g></g></svg>
