<?xml version="1.0" standalone="no"?>
<!DOCTYPE svg PUBLIC "-//W3C//DTD SVG 20010904//EN"
 "http://www.w3.org/TR/2001/REC-SVG-20010904/DTD/svg10.dtd">
<svg version="1.0" xmlns="http://www.w3.org/2000/svg"
 width="1000.000000pt" height="1000.000000pt" viewBox="0 0 1000.000000 1000.000000"
 preserveAspectRatio="xMidYMid meet">
<metadata>
Created by potrace 1.11, written by Peter Selinger 2001-2013
</metadata>
<g transform="translate(0.000000,1000.000000) scale(0.100000,-0.100000)"
fill="#000000" stroke="none">
<path d="M2308 9996 c-1 -2 -34 -6 -73 -10 -183 -16 -406 -68 -594 -136 -86
-32 -261 -109 -321 -143 -335 -188 -538 -358 -795 -668 -11 -13 -45 -60 -76
-104 -171 -249 -277 -472 -357 -755 -34 -118 -39 -142 -57 -250 -4 -25 -9 -54
-11 -65 -19 -96 -26 -479 -12 -620 8 -73 35 -237 44 -267 3 -10 8 -30 10 -45
12 -64 60 -217 106 -337 l50 -129 -16 -56 c-39 -138 -55 -198 -60 -221 -3 -14
-10 -43 -15 -65 -5 -22 -12 -51 -15 -65 -2 -14 -10 -50 -16 -80 -6 -30 -13
-64 -15 -75 -1 -11 -8 -49 -14 -85 -6 -36 -13 -82 -16 -102 -3 -21 -7 -53 -10
-71 -2 -18 -7 -62 -10 -98 -4 -35 -8 -75 -10 -88 -23 -139 -23 -782 0 -922 2
-13 6 -51 10 -84 11 -111 16 -150 20 -175 2 -14 9 -54 14 -90 6 -36 13 -76 16
-90 3 -14 10 -52 16 -85 5 -33 14 -76 19 -95 5 -19 26 -100 46 -180 81 -323
224 -704 375 -995 25 -49 56 -110 69 -134 26 -53 35 -45 44 44 3 33 8 71 11
85 3 14 7 41 10 60 3 19 7 46 10 60 2 13 7 42 11 65 3 22 17 94 30 160 14 66
27 131 29 145 11 60 109 433 146 558 139 466 320 914 552 1369 l37 72 86 -35
c187 -76 373 -124 614 -159 115 -17 384 -22 515 -11 217 19 396 56 595 123
879 292 1532 1059 1675 1963 24 152 28 209 29 385 0 248 -18 412 -69 608 -9
34 -18 71 -20 81 -8 35 -37 119 -77 224 -22 57 -38 105 -37 107 6 5 198 100
311 154 452 214 1085 432 1558 536 8 2 49 11 90 20 41 9 84 18 95 21 26 6 289
53 335 60 19 3 46 7 60 10 14 2 48 7 75 10 28 4 57 8 65 10 8 1 31 3 50 3 30
1 32 3 20 15 -22 22 -348 185 -485 243 -342 145 -726 263 -1040 318 -16 2 -41
7 -55 10 -26 5 -59 10 -125 20 -22 3 -51 7 -65 10 -14 2 -52 7 -85 11 -33 3
-73 8 -90 10 -198 26 -895 25 -1030 -1 -11 -2 -47 -7 -80 -10 -70 -7 -109 -13
-185 -25 -30 -5 -70 -12 -87 -15 -77 -12 -103 -17 -227 -45 -72 -16 -185 -44
-251 -63 -113 -32 -122 -33 -155 -20 -128 54 -376 132 -470 149 -14 2 -45 9
-70 14 -101 22 -286 37 -462 38 -102 0 -188 -1 -190 -2z"/>
<path d="M9790 6003 c-321 -80 -601 -164 -840 -251 -143 -52 -428 -165 -457
-181 -10 -5 -70 -33 -133 -62 -115 -51 -394 -188 -460 -226 -19 -11 -66 -37
-105 -58 -246 -135 -621 -378 -864 -561 -79 -60 -156 -118 -171 -129 -29 -21
-68 -54 -219 -180 -53 -44 -103 -87 -112 -95 -8 -8 -55 -51 -104 -95 -196
-177 -511 -501 -675 -695 -30 -36 -57 -67 -60 -70 -21 -20 -249 -313 -315
-404 -11 -16 -34 -47 -51 -70 -98 -130 -304 -453 -445 -696 -104 -181 -259
-488 -350 -697 -28 -65 -59 -136 -69 -158 -91 -208 -309 -847 -336 -990 -2
-11 -19 -77 -37 -147 l-33 -127 45 -10 c61 -13 111 -23 136 -27 11 -1 65 -10
120 -18 260 -41 405 -51 745 -51 318 0 428 6 655 36 44 6 89 12 100 14 23 2
100 15 130 21 11 3 36 7 55 10 19 3 43 7 52 10 10 3 30 7 45 10 166 28 639
170 803 241 8 3 17 7 20 8 3 1 22 9 44 18 21 9 41 17 43 17 33 0 468 224 662
340 204 123 528 364 726 540 91 82 350 344 424 430 41 47 85 99 100 115 90
104 431 586 431 610 0 3 12 24 27 48 129 204 329 641 424 930 93 283 177 629
204 842 3 28 8 57 10 65 2 8 7 44 10 80 4 36 8 81 11 100 13 119 19 268 19
515 0 377 -11 512 -65 835 -28 164 -30 174 -38 181 -4 3 -50 -4 -102 -18z"/>
</g>
</svg>
