<?xml version="1.0" standalone="no"?>
<!DOCTYPE svg PUBLIC "-//W3C//DTD SVG 20010904//EN"
 "http://www.w3.org/TR/2001/REC-SVG-20010904/DTD/svg10.dtd">
<svg version="1.0" xmlns="http://www.w3.org/2000/svg"
 width="1000.000000pt" height="1000.000000pt" viewBox="0 0 1000.000000 1000.000000"
 preserveAspectRatio="xMidYMid meet">
<metadata>
Created by potrace 1.11, written by Peter Selinger 2001-2013
</metadata>
<g transform="translate(0.000000,1000.000000) scale(0.100000,-0.100000)"
fill="#000000" stroke="none">
<path d="M2308 9996 c-1 -2 -34 -6 -73 -10 -183 -16 -406 -68 -594 -136 -86
-32 -261 -109 -321 -143 -335 -188 -538 -358 -795 -668 -11 -13 -45 -60 -76
-104 -171 -249 -277 -472 -357 -755 -34 -118 -39 -142 -57 -250 -4 -25 -9 -54
-11 -65 -19 -96 -26 -521 -11 -635 13 -95 28 -183 38 -230 6 -25 13 -56 15
-70 13 -64 61 -217 106 -334 l50 -129 -16 -56 c-38 -133 -55 -198 -60 -221 -3
-14 -17 -77 -31 -140 -14 -63 -27 -126 -29 -140 -2 -14 -9 -54 -15 -90 -6 -36
-13 -82 -16 -102 -3 -21 -7 -53 -10 -71 -2 -18 -7 -62 -10 -98 -4 -35 -8 -75
-10 -88 -23 -142 -23 -759 0 -925 4 -29 9 -70 21 -186 2 -25 7 -56 9 -70 2
-14 9 -54 14 -90 6 -36 13 -76 16 -90 3 -14 10 -50 16 -80 6 -30 12 -59 13
-65 1 -5 6 -26 10 -45 86 -407 254 -861 467 -1264 46 -88 53 -87 63 9 3 33 8
71 11 85 3 14 7 41 10 60 3 19 7 46 10 60 2 13 7 42 11 65 3 22 17 94 30 160
14 66 27 131 29 145 11 60 109 433 146 558 139 466 319 914 552 1369 l37 72
67 -28 c180 -76 379 -128 633 -166 215 -32 534 -21 780 26 551 105 1038 381
1411 800 307 344 534 822 594 1249 3 25 8 52 10 60 10 38 19 209 19 345 0 231
-20 399 -69 588 -9 34 -18 71 -21 81 -7 34 -46 149 -81 239 -19 49 -33 90 -31
92 10 9 262 132 428 208 396 182 1012 388 1440 482 8 2 49 11 90 20 41 9 84
18 95 21 26 6 289 53 335 60 19 3 46 7 60 10 14 2 48 7 75 10 28 4 57 8 65 10
8 1 31 3 50 3 30 1 32 3 20 15 -22 21 -287 155 -435 221 -368 163 -779 288
-1154 351 -18 3 -43 8 -55 10 -11 2 -41 7 -66 9 -25 3 -52 8 -60 10 -8 2 -44
7 -80 10 -36 4 -78 9 -95 11 -206 26 -860 26 -1028 -1 -12 -2 -49 -6 -82 -10
-71 -7 -111 -13 -185 -25 -30 -5 -70 -12 -87 -15 -77 -12 -103 -17 -227 -45
-72 -16 -185 -44 -251 -63 -113 -32 -122 -33 -155 -20 -128 54 -376 132 -470
149 -14 2 -45 9 -70 14 -100 22 -285 37 -462 38 -102 0 -188 -1 -190 -2z"/>
<path d="M9790 6003 c-321 -80 -601 -164 -840 -251 -140 -51 -427 -165 -457
-181 -10 -5 -61 -28 -113 -52 -97 -43 -417 -201 -480 -236 -19 -11 -66 -37
-105 -58 -137 -75 -373 -220 -545 -336 -156 -104 -457 -321 -470 -339 -3 -3
-14 -13 -26 -21 -11 -8 -43 -32 -69 -54 -126 -104 -241 -201 -256 -215 -8 -8
-55 -51 -104 -95 -196 -177 -511 -501 -675 -695 -30 -36 -57 -67 -60 -70 -21
-21 -187 -233 -282 -360 -353 -474 -677 -1034 -903 -1560 -15 -36 -35 -83 -45
-105 -94 -217 -309 -848 -336 -990 -2 -11 -19 -77 -37 -147 l-33 -127 45 -10
c61 -13 111 -23 136 -27 11 -1 65 -10 120 -18 260 -41 405 -51 745 -51 318 0
428 6 655 36 44 6 89 12 100 14 23 2 100 15 130 21 11 3 36 7 55 10 19 3 43 7
52 10 10 3 30 7 45 10 166 28 639 170 803 241 8 3 17 7 20 8 3 1 22 9 44 18
21 9 41 17 43 17 33 0 468 224 662 340 204 123 528 364 726 540 91 82 350 344
424 430 41 47 85 99 100 115 90 104 431 586 431 610 0 3 12 24 27 48 129 204
329 641 424 930 93 283 177 629 204 842 3 28 8 57 10 65 2 8 7 44 10 80 4 36
8 81 11 100 26 227 26 874 -1 1030 -2 14 -6 50 -10 80 -3 30 -7 66 -9 80 -6
36 -28 181 -31 207 -2 11 -6 29 -9 40 -3 10 -8 34 -11 53 -3 19 -9 38 -13 41
-4 3 -50 -4 -102 -18z"/>
</g>
</svg>
